<svg width="61" height="61" viewBox="0 0 61 61" fill="none" xmlns="http://www.w3.org/2000/svg">
<circle cx="30.5" cy="30.5" r="30.5" fill="#F4F2F2"/>
<path fill-rule="evenodd" clip-rule="evenodd" d="M44.1371 35.2393C43.4523 37.3638 42.2661 39.2633 40.716 40.8H21.284C18.7594 38.2971 17.2 34.8319 17.2 31C17.2 23.3785 23.3785 17.2 31 17.2C35.6394 17.2 39.744 19.4894 42.2459 23H28.7478C28.4815 23.0003 28.2188 23.0614 27.9797 23.1786C27.7406 23.2959 27.5314 23.4661 27.368 23.6764C27.2047 23.8867 27.0914 24.1314 27.037 24.3921C26.9825 24.6528 26.9883 24.9224 27.0538 25.1805C27.941 28.6805 29.8468 31.162 32.7728 32.625C36.0496 34.2634 39.8372 35.1349 44.1371 35.2393ZM44.6492 33.048C44.7486 32.3798 44.8 31.6959 44.8 31C44.8 28.9283 44.3435 26.9633 43.5256 25.2H29.3414C30.1362 27.8376 31.6148 29.5863 33.7566 30.6573C36.8083 32.1831 40.4197 33.0026 44.6492 33.048ZM47 31C47 35.7788 44.905 40.0682 41.5833 43H20.4167C17.095 40.0682 15 35.7788 15 31C15 22.1634 22.1634 15 31 15C39.8366 15 47 22.1634 47 31Z" fill="black"/>
</svg>
