<svg width="19" height="19" viewBox="0 0 19 19" fill="none" xmlns="http://www.w3.org/2000/svg">
<path fill-rule="evenodd" clip-rule="evenodd" d="M1.70711 0.292893C1.31658 -0.0976311 0.683418 -0.0976311 0.292893 0.292893C-0.0976311 0.683418 -0.0976311 1.31658 0.292893 1.70711L8.08579 9.5L0.292894 17.2929C-0.0976299 17.6834 -0.0976302 18.3166 0.292894 18.7071C0.683418 19.0976 1.31658 19.0976 1.70711 18.7071L9.5 10.9142L17.2929 18.7071C17.6834 19.0976 18.3166 19.0976 18.7071 18.7071C19.0976 18.3166 19.0976 17.6834 18.7071 17.2929L10.9142 9.5L18.7071 1.70711C19.0976 1.31658 19.0976 0.683418 18.7071 0.292893C18.3166 -0.0976311 17.6834 -0.0976311 17.2929 0.292893L9.5 8.08579L1.70711 0.292893Z" fill="black"/>
</svg>
