<svg width="80" height="56" viewBox="0 0 80 56" fill="none" xmlns="http://www.w3.org/2000/svg">
<path d="M37.191 49.2814H31.1599L31.8182 51.0671C32.1491 51.9647 32.6595 52.7855 33.3183 53.4793C34.3998 54.6182 35.8312 55.3627 37.3847 55.5943L38.2421 55.7221C39.083 55.8474 39.938 55.8458 40.7784 55.7172L41.2355 55.6473C42.9653 55.3827 44.5411 54.5019 45.6728 53.1671C46.2756 52.4561 46.7358 51.6356 47.0281 50.7504L47.5134 49.2814H41.4823L40.8371 49.9958C40.7264 50.1184 40.6013 50.2272 40.4646 50.3199C39.8719 50.7219 39.1128 50.7871 38.4602 50.492L38.371 50.4516C37.9792 50.2745 37.6469 49.9882 37.4139 49.6269L37.191 49.2814Z" fill="white"/>
<path d="M43.6556 6.65852L43.3352 5.69721C43.1934 5.27195 43.3614 4.80494 43.7415 4.56736C43.8957 4.47096 44.0739 4.41985 44.2558 4.41985H46.3182C46.6507 4.41985 46.9612 4.25367 47.1456 3.97701C47.3683 3.64297 47.3683 3.20779 47.1456 2.87375L46.4082 1.76767C45.9827 1.12943 45.3281 0.679244 44.5799 0.51029L43.9519 0.368476C42.8978 0.130455 41.7935 0.271236 40.8329 0.766119L40.7342 0.816949C39.433 1.48728 38.5107 2.71687 38.2313 4.1537L38.2035 4.29657C38.0076 5.30424 38.1719 6.34872 38.6678 7.24754L39.056 7.95112C39.4435 8.65354 40.1254 9.14536 40.9142 9.29144L41.3021 9.36327C42.1207 9.51487 42.951 9.164 43.4128 8.47123C43.7691 7.93682 43.8587 7.26785 43.6556 6.65852Z" fill="#FFD029"/>
<path d="M33.171 11.9088L32.4859 11.8231L16.8938 11.9292C16.4768 11.932 16.0776 12.099 15.7827 12.3939L15.6097 12.5669C15.0131 13.1635 15.0886 14.1515 15.769 14.6505C16.0051 14.8237 16.2903 14.917 16.5831 14.917H23.0127C23.6088 14.917 24.1585 15.2385 24.4507 15.758C24.7682 16.3224 24.7262 17.0204 24.3432 17.5426L24.2916 17.6129C23.9554 18.0715 23.4207 18.3424 22.8521 18.3424H10.4833C10.0677 18.3424 9.66903 18.5075 9.37511 18.8014C8.65413 19.5224 8.80267 20.729 9.67699 21.2536L9.7727 21.311C10.0298 21.4653 10.324 21.5468 10.6239 21.5468H19.7556C20.2586 21.5468 20.7338 21.7777 21.0445 22.1733C21.4772 22.7239 21.5122 23.4886 21.1318 24.0765L21.0779 24.1599C20.7502 24.6664 20.1881 24.9722 19.5848 24.9722H11.3577C10.9482 24.9722 10.5554 25.1349 10.2658 25.4245C9.58216 26.1081 9.68781 27.2448 10.4858 27.7908L10.6207 27.8831C10.9001 28.0743 11.2308 28.1766 11.5693 28.1766H18.3692C18.8437 28.1766 19.2951 28.3814 19.6075 28.7384C19.7923 28.9497 20.0281 29.1101 20.2924 29.2045L20.8179 29.3922C21.2271 29.5383 21.6584 29.613 22.0929 29.613H32.5175C32.717 29.613 32.9162 29.596 33.1129 29.5621L33.6262 29.4736C35.0104 29.2349 36.0218 28.0343 36.0218 26.6296V15.138C36.0218 13.4968 34.7996 12.1123 33.171 11.9088Z" fill="#FFD029"/>
<path d="M11.4165 11.9336H10.3491C9.94861 11.9336 9.56453 12.0927 9.28135 12.3759C8.72118 12.936 8.68916 13.8339 9.20799 14.4325L9.25097 14.4821C9.55116 14.8285 9.98695 15.0275 10.4453 15.0275H11.303C11.835 15.0275 12.3318 14.7616 12.6269 14.3189L12.6636 14.2639C13.0199 13.7295 12.9961 13.0276 12.6045 12.5186C12.3208 12.1497 11.8818 11.9336 11.4165 11.9336Z" fill="#FFD029"/>
<path d="M6.64321 24.9722H2.7318C2.39303 24.9722 2.06339 25.082 1.79237 25.2853L1.74671 25.3196C0.898498 25.9557 0.941676 27.2417 1.83065 27.8196C2.07816 27.9804 2.36702 28.0661 2.66221 28.0661H6.56028C6.95986 28.0661 7.34445 27.914 7.63596 27.6407L7.68156 27.5979C8.35265 26.9688 8.3145 25.8921 7.60057 25.3121C7.32995 25.0922 6.99189 24.9722 6.64321 24.9722Z" fill="#FFD029"/>
<path d="M13.3794 38.2318H8.55015C8.24938 38.2318 7.95501 38.3187 7.7024 38.4819L7.65818 38.5105C6.69 39.1362 6.73523 40.5672 7.74098 41.1306C7.96943 41.2585 8.22688 41.3257 8.48871 41.3257H13.3056C13.6641 41.3257 14.0119 41.2028 14.2908 40.9774L14.3368 40.9403C15.1252 40.3034 15.0835 39.0886 14.2532 38.5073C13.9971 38.328 13.6921 38.2318 13.3794 38.2318Z" fill="#FFD029"/>
<path d="M19.6214 44.8616H15.9258C15.577 44.8616 15.2382 44.9779 14.963 45.1923L14.9172 45.228C14.0994 45.8649 14.1419 47.1146 15.001 47.6945C15.253 47.8646 15.55 47.9555 15.854 47.9555H19.5361C19.9462 47.9555 20.3402 47.7954 20.6341 47.5092L20.6794 47.4651C21.3216 46.8399 21.2845 45.7971 20.5995 45.2191C20.3259 44.9882 19.9794 44.8616 19.6214 44.8616Z" fill="#FFD029"/>
<path fill-rule="evenodd" clip-rule="evenodd" d="M41.5506 11.1364L40.8694 11.4089C40.0124 11.7517 39.2696 12.3296 38.7268 13.0761C38.1178 13.9135 37.7897 14.9222 37.7897 15.9576V24.9179C37.7897 25.7499 38.0069 26.5676 38.4197 27.2901C38.8741 28.0853 39.5474 28.7333 40.3594 29.1569L40.5001 29.2303C41.2602 29.6269 42.1048 29.834 42.9621 29.834H50.1653L51.6241 39.7534C51.7506 40.6136 52.2357 41.3799 52.9591 41.8622L53.2418 42.0506C54.0019 42.5574 54.978 42.6089 55.7873 42.185C56.4275 41.8496 56.8912 41.2534 57.0586 40.5503L57.1853 40.0184C57.2925 39.5679 57.3143 39.1013 57.2493 38.6428L55.636 27.2485C55.5985 26.9839 55.5344 26.7238 55.4445 26.4721L55.3433 26.1889C55.1375 25.6126 54.7602 25.113 54.2622 24.7573C53.7536 24.394 53.1442 24.1987 52.5192 24.1987H47.7344V20.2208L48.1663 20.5808C49.1881 21.4322 50.4065 22.0149 51.7107 22.2757C52.2261 22.3788 52.7505 22.4307 53.2761 22.4307H55.9809C56.5054 22.4307 57.0116 22.6232 57.4036 22.9716C57.6573 23.1971 57.8537 23.4797 57.9767 23.796L58.563 25.3036L59.6259 27.9609C59.9478 28.7656 60.1881 29.6006 60.3431 30.4533C60.4821 31.2175 60.552 31.9927 60.552 32.7694V39.0107C60.552 39.4466 60.4868 39.88 60.3586 40.2965C60.1944 40.8303 59.9294 41.3277 59.578 41.7617L59.0061 42.4682C58.501 43.0921 57.8227 43.5528 57.0565 43.7922C56.6635 43.915 56.2542 43.9775 55.8424 43.9775H50.8139C50.3837 43.9775 49.9558 43.9159 49.5431 43.7945C48.7226 43.5532 47.9878 43.0832 47.4246 42.4396L47.3841 42.3933C46.9592 41.9076 46.6385 41.34 46.4418 40.7254L46.2216 40.0373C45.9866 39.3029 46.0385 38.5068 46.3668 37.8092C46.6106 37.291 46.9954 36.852 47.4771 36.5423L48.097 36.1439C48.221 36.0642 48.3653 36.0218 48.5126 36.0218C48.9372 36.0218 49.2813 35.6776 49.2813 35.2531V34.2815C49.2813 33.9049 49.1592 33.5385 48.9333 33.2373L48.6992 32.9251C48.428 32.5636 48.0765 32.2702 47.6723 32.0681L47.5134 31.9887C47.0047 31.7343 46.4439 31.6019 45.8752 31.6019H19.8481C19.515 31.6019 19.1897 31.7023 18.9144 31.8899C17.9494 32.5479 17.9494 33.9708 18.9144 34.6288C19.1897 34.8164 19.515 34.9168 19.8481 34.9168H31.486C31.9748 34.9168 32.4335 35.1529 32.7177 35.5506L32.7369 35.5776C33.1129 36.1039 33.1003 36.8143 32.7059 37.3269C32.4279 37.6884 31.9977 37.9002 31.5417 37.9002H18.7177C18.4701 37.9002 18.2252 37.951 17.998 38.0494C16.6991 38.6123 16.5199 40.3814 17.6797 41.1932L17.8457 41.3094C18.169 41.5357 18.5541 41.6571 18.9487 41.6571H31.1748C31.3834 41.6571 31.5896 41.7021 31.7793 41.789C32.8119 42.2623 32.9247 43.685 31.9796 44.3151L31.8747 44.385C31.6248 44.5516 31.3312 44.6405 31.0309 44.6405H24.5226C24.1016 44.6405 23.6962 44.8008 23.389 45.0888C22.6906 45.7436 22.6906 46.8523 23.3891 47.5071C23.6963 47.7951 24.1016 47.9554 24.5226 47.9554H31.4915H63.0934C63.3985 47.9554 63.6459 48.2027 63.6459 48.5079C63.6459 49.094 63.7314 49.6771 63.8999 50.2385L64.0026 50.581C64.2057 51.258 64.5044 51.9026 64.8896 52.4952C65.4538 53.3633 66.1932 54.1038 67.0604 54.6694L67.1122 54.7031C67.8889 55.2096 68.7504 55.5722 69.6555 55.7733L69.7756 55.8C70.7638 56.0196 71.7836 56.0587 72.7857 55.9156L72.8883 55.9009C73.8638 55.7616 74.8057 55.4447 75.6671 54.9661L75.7062 54.9445C76.7852 54.345 77.7085 53.5005 78.4016 52.4791L78.4544 52.4013C79.107 51.4395 79.5268 50.3389 79.6804 49.1868L79.746 48.6946C79.8402 47.9885 79.7862 47.2706 79.5876 46.5865L79.1066 44.9297C78.9726 44.4679 79.0574 43.9702 79.3369 43.579C79.4099 43.4767 79.4704 43.3661 79.5171 43.2494L79.5403 43.1913C79.762 42.6371 79.7361 42.0146 79.4692 41.4807L78.9105 40.3635C78.7529 40.0482 78.5615 39.7509 78.3397 39.477L77.6667 38.6457C77.0868 37.9293 76.4408 37.2691 75.7372 36.6737L74.5251 35.6481C74.1241 35.3088 73.6896 35.011 73.2284 34.7595L72.1447 34.1684C71.7158 33.9344 71.2351 33.8118 70.7466 33.8118C69.4783 33.8118 68.355 32.993 67.9669 31.7856L67.6237 30.718L65.9663 27.2926L62.9233 22.6756C62.818 22.5159 62.7619 22.3288 62.7619 22.1374C62.7619 21.6668 63.0971 21.2629 63.5597 21.1762L64.1962 21.0568C64.4166 21.0155 64.627 20.9324 64.8162 20.8121L64.8461 20.7931C65.4061 20.4366 65.7453 19.8188 65.7453 19.1549V17.9049C65.7453 17.6094 65.6945 17.3162 65.5951 17.038C65.34 16.3235 64.7742 15.7545 64.0639 15.4881C63.6481 15.3322 63.1944 15.2831 62.7553 15.3489L59.4552 15.8439C59.1556 15.8889 58.8605 15.9596 58.5731 16.0554L57.4192 16.4401C57.1567 16.5276 56.9272 16.693 56.7612 16.9143C56.5043 17.2568 56.1012 17.4584 55.673 17.4584H53.0085C52.2379 17.4584 51.4871 17.2143 50.8638 16.761C50.6931 16.6369 50.5335 16.4981 50.3868 16.3464L47.4029 13.2596L46.2862 12.1429C45.8565 11.7132 45.344 11.3752 44.7799 11.1496L44.747 11.1364C44.2387 10.9331 43.6963 10.8286 43.1488 10.8286C42.6014 10.8286 42.0589 10.9331 41.5506 11.1364ZM71.7121 50.6073C73.2377 50.6073 74.4745 49.3705 74.4745 47.8449C74.4745 46.3192 73.2377 45.0825 71.7121 45.0825C70.1864 45.0825 68.9497 46.3192 68.9497 47.8449C68.9497 49.3705 70.1864 50.6073 71.7121 50.6073Z" fill="white"/>
</svg>
