<svg width="35" height="24" viewBox="0 0 35 24" fill="none" xmlns="http://www.w3.org/2000/svg">
<path fill-rule="evenodd" clip-rule="evenodd" d="M0 2C0 0.895431 0.895431 0 2 0H33C34.1046 0 35 0.895431 35 2C35 3.10457 34.1046 4 33 4H2C0.89543 4 0 3.10457 0 2ZM0 12C0 10.8954 0.895431 10 2 10H33C34.1046 10 35 10.8954 35 12C35 13.1046 34.1046 14 33 14H2C0.89543 14 0 13.1046 0 12ZM2 20C0.895431 20 0 20.8954 0 22C0 23.1046 0.89543 24 2 24H33C34.1046 24 35 23.1046 35 22C35 20.8954 34.1046 20 33 20H2Z" fill="#FF8200"/>
</svg>
