<svg width="63" height="61" viewBox="0 0 63 61" fill="none" xmlns="http://www.w3.org/2000/svg">
<ellipse cx="31.3026" cy="30.5" rx="31.3026" ry="30.5" fill="#F2F7F2"/>
<path fill-rule="evenodd" clip-rule="evenodd" d="M34.827 17.1334L45.5963 23.0564C45.7652 23.1494 45.906 23.2859 46.0042 23.4519C46.1023 23.6178 46.1541 23.807 46.1541 23.9998V37.9999C46.1541 38.1926 46.1023 38.3819 46.0042 38.5478C45.906 38.7138 45.7652 38.8503 45.5963 38.9433L34.827 44.8663C34.668 44.954 34.4895 45 34.3079 45C34.1264 45 33.9478 44.954 33.7888 44.8663L28.9233 42.1902L29.9615 40.3045L33.231 42.103V30.5594L23.0196 24.9432C22.8507 24.8503 22.7099 24.7137 22.6119 24.5477C22.5138 24.3818 22.4621 24.1926 22.4621 23.9998C22.4621 23.8071 22.5138 23.6179 22.6119 23.4519C22.7099 23.286 22.8507 23.1494 23.0196 23.0564L33.7888 17.1334C33.9479 17.0459 34.1264 17 34.3079 17C34.4894 17 34.668 17.0459 34.827 17.1334ZM42.8426 23.9998L34.3079 19.3066L25.7733 23.9998L34.3079 28.6931L42.8426 23.9998ZM35.3849 42.1019L44.0003 37.3634V25.8198L35.3849 30.5583V42.1019ZM16 30.9998H24.6154V28.8459H16V30.9998ZM18.1539 39.6152H26.7693V37.4613H18.1539V39.6152ZM20.3077 35.3075H28.9231V33.1536H20.3077V35.3075Z" fill="black"/>
</svg>
