<svg width="136" height="57" viewBox="0 0 136 57" fill="none" xmlns="http://www.w3.org/2000/svg">
<path d="M14.5 0.908691L11.5 34.9087L9.5 0.908691H0V56.4087H4.5V7.90869L9.5 56.4087H14.5L19 7.90869V56.4087H23.5V0.908691H14.5Z" fill="#FFD029"/>
<path fill-rule="evenodd" clip-rule="evenodd" d="M33.643 0.0756416L33.5521 0.0891643C30.2752 0.576489 27.7033 3.15078 27.219 6.42806L27.0933 7.27871C27.0312 7.69882 27 8.12292 27 8.54759V49.2146C27 50.0066 27.1223 50.7939 27.3625 51.5486C28.3788 54.7415 31.3444 56.9097 34.6952 56.9097H34.7586H35.5C39.0898 56.9097 42 53.9996 42 50.4097V8.91881C42 8.24809 41.9268 7.57938 41.7816 6.92456L41.4544 5.44852C40.8454 2.70138 38.6408 0.592056 35.8695 0.104972C35.1337 -0.0243461 34.3819 -0.0342497 33.643 0.0756416ZM33.7786 4.70181L33.708 4.72877C32.8784 5.04594 32.312 5.82028 32.2611 6.70699L32 11.2483V47.6666L32.4566 51.3543C32.5897 52.4293 33.503 53.2365 34.5862 53.2365C35.9193 53.2365 37 52.1558 37 50.8227V47.6666V11.2483L36.5873 6.46196C36.5227 5.71351 36.0587 5.05837 35.3742 4.74905C34.8699 4.5212 34.2955 4.5042 33.7786 4.70181Z" fill="#FFD029"/>
<path fill-rule="evenodd" clip-rule="evenodd" d="M68.643 0.0756416L68.5521 0.0891643C65.2752 0.576489 62.7033 3.15078 62.219 6.42806L62.0933 7.27871C62.0312 7.69882 62 8.12292 62 8.54759V49.2146C62 50.0066 62.1223 50.7939 62.3625 51.5486C63.3788 54.7415 66.3444 56.9097 69.6952 56.9097H69.7586H70.5C74.0898 56.9097 77 53.9996 77 50.4097V8.91881C77 8.24809 76.9268 7.57938 76.7816 6.92456L76.4544 5.44852C75.8454 2.70138 73.6408 0.592056 70.8695 0.104972C70.1337 -0.0243461 69.3819 -0.0342497 68.643 0.0756416ZM68.7786 4.70181L68.708 4.72877C67.8784 5.04594 67.312 5.82028 67.2611 6.70699L67 11.2483V47.6666L67.4566 51.3543C67.5897 52.4293 68.503 53.2365 69.5862 53.2365C70.9193 53.2365 72 52.1558 72 50.8227V47.6666V11.2483L71.5873 6.46196C71.5227 5.71351 71.0587 5.05837 70.3742 4.74905C69.8699 4.5212 69.2955 4.5042 68.7786 4.70181Z" fill="#FFD029"/>
<path d="M45.5 5.40869V0.908691H59.5V5.40869H55V56.9087H50C49.6 56.9087 49.8333 22.5754 50 5.40869H45.5Z" fill="#FFD029"/>
<path d="M81.5 56.9087V0.908691H86.5V51.4087H91V56.9087H81.5Z" fill="#FFD029"/>
<rect x="95" y="0.908691" width="4" height="56" fill="#FFD029"/>
<path d="M103.5 56.9087V0.408691H108L113 30.4087V0.408691H117.5V56.9087H113L108 26.4087V56.9087H103.5Z" fill="#FFD029"/>
<path d="M121.5 56.4087V0.908691H126V27.4087L126.097 27.3115C128.012 25.3962 129.519 23.112 130.525 20.5972L131 19.4087V0.908691H135.5V20.9087L135.193 21.8286C134.405 24.1945 133.181 26.3919 131.584 28.3077L131.5 28.4087L131.584 28.5096C133.181 30.4254 134.405 32.6229 135.193 34.9888L136 37.4087L135.5 56.4087H131V42.1301C131 39.0252 130.277 35.9629 128.889 33.1858L128.5 32.4087L128.111 33.1858C126.723 35.9629 126 39.0252 126 42.1301V56.4087H121.5Z" fill="#FFD029"/>
</svg>
